<?xml version="1.0" standalone="no"?>
<!DOCTYPE svg PUBLIC "-//W3C//DTD SVG 20010904//EN"
 "http://www.w3.org/TR/2001/REC-SVG-20010904/DTD/svg10.dtd">
<svg version="1.0" xmlns="http://www.w3.org/2000/svg"
 width="500.000000pt" height="500.000000pt" viewBox="0 0 500.000000 500.000000"
 preserveAspectRatio="xMidYMid meet">
<metadata>
Created by potrace 1.11, written by Peter Selinger 2001-2013
</metadata>
<g transform="translate(0.000000,500.000000) scale(0.100000,-0.100000)"
fill="#000000" stroke="none">
<path d="M2215 4984 c-289 -35 -537 -108 -800 -235 -152 -74 -176 -88 -310
-178 -278 -188 -520 -434 -704 -716 -50 -76 -47 -72 -113 -195 -117 -219 -232
-558 -254 -750 -4 -30 -8 -58 -10 -61 -24 -42 -24 -656 0 -698 2 -4 6 -29 10
-58 3 -28 8 -57 11 -65 2 -7 6 -24 9 -38 31 -183 130 -456 233 -650 62 -115
63 -117 107 -185 293 -453 738 -812 1238 -999 97 -36 322 -100 388 -110 19 -3
82 -13 140 -22 171 -27 554 -24 720 6 30 5 71 12 90 15 74 13 239 55 320 83
853 292 1481 1002 1660 1875 10 51 21 116 25 146 4 30 9 63 11 75 3 12 7 89 9
171 6 179 -2 211 -65 277 -96 99 -263 96 -356 -6 -51 -55 -61 -95 -68 -261 -5
-108 -10 -148 -31 -280 -17 -102 -69 -276 -120 -400 -247 -600 -784 -1048
-1424 -1190 -41 -9 -91 -18 -110 -21 -20 -2 -65 -8 -101 -13 -84 -11 -332 -11
-435 0 -255 27 -570 126 -750 234 -32 19 -59 35 -62 35 -2 0 -39 23 -81 52
-302 203 -545 478 -696 790 -82 169 -143 351 -170 508 -3 19 -8 45 -10 57 -14
69 -21 177 -21 323 0 143 10 304 20 320 2 3 6 24 9 46 30 199 133 473 251 669
147 243 393 501 605 635 30 19 57 37 60 40 10 11 88 52 185 99 241 116 504
184 765 196 161 8 184 12 229 34 108 56 157 211 101 326 -26 53 -85 107 -135
122 -46 14 -239 12 -370 -3z"/>
<path d="M3940 4762 c-228 -32 -454 -192 -557 -396 -105 -206 -104 -456 2
-666 36 -72 108 -167 158 -209 16 -14 34 -30 41 -36 29 -28 140 -88 207 -112
95 -33 104 -35 229 -39 166 -5 286 30 425 122 207 137 323 356 323 610 1 341
-236 636 -576 715 -47 11 -204 18 -252 11z"/>
</g>
</svg>
