<?xml version="1.0" encoding="UTF-8" standalone="no"?>
<svg
   xmlns:dc="http://purl.org/dc/elements/1.1/"
   xmlns:cc="http://creativecommons.org/ns#"
   xmlns:rdf="http://www.w3.org/1999/02/22-rdf-syntax-ns#"
   xmlns:svg="http://www.w3.org/2000/svg"
   xmlns="http://www.w3.org/2000/svg"
   xmlns:sodipodi="http://sodipodi.sourceforge.net/DTD/sodipodi-0.dtd"
   xmlns:inkscape="http://www.inkscape.org/namespaces/inkscape"
   width="200"
   height="200"
   version="1.1"
   viewBox="0 0 52.916665 52.916668"
   id="svg10"
   sodipodi:docname="pause.svg"
   inkscape:version="0.92.1 r15371">
  <metadata
     id="metadata16">
    <rdf:RDF>
      <cc:Work
         rdf:about="">
        <dc:format>image/svg+xml</dc:format>
        <dc:type
           rdf:resource="http://purl.org/dc/dcmitype/StillImage" />
        <dc:title></dc:title>
      </cc:Work>
    </rdf:RDF>
  </metadata>
  <defs
     id="defs14" />
  <sodipodi:namedview
     pagecolor="#ffffff"
     bordercolor="#666666"
     borderopacity="1"
     objecttolerance="10"
     gridtolerance="10"
     guidetolerance="10"
     inkscape:pageopacity="0"
     inkscape:pageshadow="2"
     inkscape:window-width="1920"
     inkscape:window-height="1001"
     id="namedview12"
     showgrid="true"
     inkscape:zoom="3.337544"
     inkscape:cx="113.75283"
     inkscape:cy="62.651029"
     inkscape:window-x="-9"
     inkscape:window-y="-9"
     inkscape:window-maximized="1"
     inkscape:current-layer="g6">
    <inkscape:grid
       type="xygrid"
       id="grid4497" />
  </sodipodi:namedview>
  <g
     transform="translate(0 -244.08)"
     id="g8">
    <g
       shape-rendering="auto"
       id="g6">
      <path
         style="opacity:1;fill:#000000;fill-opacity:1;stroke:none;stroke-width:21.15647697;stroke-linecap:round;stroke-linejoin:round;stroke-miterlimit:4;stroke-dasharray:none;stroke-opacity:1;paint-order:markers stroke fill"
         d="M 100.27148 83.242188 A 2.0565171 2.0565171 0 0 0 98.216797 85.296875 L 98.216797 112.03906 A 2.0565171 2.0565171 0 0 0 100.27148 114.09375 L 108.52148 114.09375 A 2.0565171 2.0565171 0 0 0 110.57617 112.03906 L 110.57617 85.296875 A 2.0565171 2.0565171 0 0 0 108.52148 83.242188 L 100.27148 83.242188 z M 83.804688 83.257812 A 2.0565171 2.0565171 0 0 0 81.75 85.314453 L 81.75 112.05469 A 2.0565171 2.0565171 0 0 0 83.804688 114.11328 L 92.054688 114.11328 A 2.0565171 2.0565171 0 0 0 94.109375 112.05469 L 94.109375 85.314453 A 2.0565171 2.0565171 0 0 0 92.054688 83.257812 L 83.804688 83.257812 z M 102.33008 87.353516 L 106.4668 87.353516 L 106.4668 109.98438 L 102.33008 109.98438 L 102.33008 87.353516 z M 85.863281 87.373047 L 90 87.373047 L 90 110 L 85.863281 110 L 85.863281 87.373047 z "
         transform="matrix(0.26458333,0,0,0.26458333,0,244.08)"
         id="rect4585" />
    </g>
  </g>
</svg>
