<?xml version="1.0" encoding="UTF-8"?>
<svg width="200" height="200" version="1.1" viewBox="0 0 52.916665 52.916668" xmlns="http://www.w3.org/2000/svg">
 <g transform="translate(0 -244.08)">
  <g shape-rendering="auto">
   <path d="m15.488 251.95a2.1148 2.1148 0 0 0 -2.1152 2.1133v27.5a2.1148 2.1148 0 0 0 2.1152 2.1152h8.4844a2.1148 2.1148 0 0 0 2.1133 -2.1152v-27.5a2.1148 2.1148 0 0 0 -2.1133 -2.1133zm2.1152 4.2285h4.2539v23.271h-4.2539z" color="#000000" color-rendering="auto" dominant-baseline="auto" image-rendering="auto" solid-color="#000000" style="font-feature-settings:normal;font-variant-alternates:normal;font-variant-caps:normal;font-variant-ligatures:normal;font-variant-numeric:normal;font-variant-position:normal;isolation:auto;mix-blend-mode:normal;paint-order:markers stroke fill;shape-padding:0;text-decoration-color:#000000;text-decoration-line:none;text-decoration-style:solid;text-indent:0;text-orientation:mixed;text-transform:none;white-space:normal"/>
   <path d="m32.422 251.93a2.1148 2.1148 0 0 0 -2.1152 2.1152v27.5a2.1148 2.1148 0 0 0 2.1152 2.1152h8.4844a2.1148 2.1148 0 0 0 2.1133 -2.1152v-27.5a2.1148 2.1148 0 0 0 -2.1133 -2.1152zm2.1152 4.2285h4.2539v23.271h-4.2539z" color="#000000" color-rendering="auto" dominant-baseline="auto" image-rendering="auto" solid-color="#000000" style="font-feature-settings:normal;font-variant-alternates:normal;font-variant-caps:normal;font-variant-ligatures:normal;font-variant-numeric:normal;font-variant-position:normal;isolation:auto;mix-blend-mode:normal;paint-order:markers stroke fill;shape-padding:0;text-decoration-color:#000000;text-decoration-line:none;text-decoration-style:solid;text-indent:0;text-orientation:mixed;text-transform:none;white-space:normal"/>
  </g>
 </g>
</svg>
