<?xml version="1.0" encoding="UTF-8" standalone="no"?>
<svg
   xmlns:dc="http://purl.org/dc/elements/1.1/"
   xmlns:cc="http://creativecommons.org/ns#"
   xmlns:rdf="http://www.w3.org/1999/02/22-rdf-syntax-ns#"
   xmlns:svg="http://www.w3.org/2000/svg"
   xmlns="http://www.w3.org/2000/svg"
   xmlns:sodipodi="http://sodipodi.sourceforge.net/DTD/sodipodi-0.dtd"
   xmlns:inkscape="http://www.inkscape.org/namespaces/inkscape"
   width="200"
   height="200"
   version="1.1"
   viewBox="0 0 52.916662 52.916668"
   id="svg4"
   sodipodi:docname="polygon.svg"
   inkscape:version="0.92.1 r15371">
  <metadata
     id="metadata10">
    <rdf:RDF>
      <cc:Work
         rdf:about="">
        <dc:format>image/svg+xml</dc:format>
        <dc:type
           rdf:resource="http://purl.org/dc/dcmitype/StillImage" />
        <dc:title></dc:title>
      </cc:Work>
    </rdf:RDF>
  </metadata>
  <defs
     id="defs8" />
  <sodipodi:namedview
     pagecolor="#ffffff"
     bordercolor="#666666"
     borderopacity="1"
     objecttolerance="10"
     gridtolerance="10"
     guidetolerance="10"
     inkscape:pageopacity="0"
     inkscape:pageshadow="2"
     inkscape:window-width="1920"
     inkscape:window-height="1001"
     id="namedview6"
     showgrid="false"
     inkscape:zoom="18.88"
     inkscape:cx="90.693634"
     inkscape:cy="112.72131"
     inkscape:window-x="-9"
     inkscape:window-y="-9"
     inkscape:window-maximized="1"
     inkscape:current-layer="svg4" />
  <path
     style="fill:#050101;stroke-width:0.99998742"
     d="M 95.935547 75.875 C 92.688184 75.773314 90.032247 78.097172 88.707031 80.888672 C 86.027265 85.561613 83.352831 90.23873 80.634766 94.888672 C 78.343394 99.128819 80.455903 105.96385 86.460938 105.92188 C 93.376049 105.85968 98.87744 105.91683 104.85938 105.86523 C 109.91699 105.90883 113.82858 100.65089 111.78711 96.03125 C 108.73265 90.057925 105.12135 84.220792 101.92969 78.880859 C 100.54729 77.011207 98.262597 75.864551 95.9375 75.875 L 95.935547 75.875 z M 96.107422 79.957031 A 2.5 2.5 0 0 1 98.607422 82.457031 A 2.5 2.5 0 0 1 96.107422 84.957031 A 2.5 2.5 0 0 1 93.607422 82.457031 A 2.5 2.5 0 0 1 96.107422 79.957031 z M 86.705078 96.546875 A 2.5 2.5 0 0 1 89.205078 99.046875 A 2.5 2.5 0 0 1 86.705078 101.54688 A 2.5 2.5 0 0 1 84.205078 99.046875 A 2.5 2.5 0 0 1 86.705078 96.546875 z M 105.50781 96.546875 A 2.5 2.5 0 0 1 108.00781 99.046875 A 2.5 2.5 0 0 1 105.50781 101.54688 A 2.5 2.5 0 0 1 103.00781 99.046875 A 2.5 2.5 0 0 1 105.50781 96.546875 z "
     transform="scale(0.26458332)"
     id="path2" />
</svg>
