<?xml version="1.0" encoding="UTF-8" standalone="no"?>
<!-- Created with Inkscape (http://www.inkscape.org/) -->

<svg
   xmlns:dc="http://purl.org/dc/elements/1.1/"
   xmlns:cc="http://creativecommons.org/ns#"
   xmlns:rdf="http://www.w3.org/1999/02/22-rdf-syntax-ns#"
   xmlns:svg="http://www.w3.org/2000/svg"
   xmlns="http://www.w3.org/2000/svg"
   xmlns:sodipodi="http://sodipodi.sourceforge.net/DTD/sodipodi-0.dtd"
   xmlns:inkscape="http://www.inkscape.org/namespaces/inkscape"
   width="200"
   height="200"
   viewBox="0 0 52.916665 52.916668"
   version="1.1"
   id="svg4612"
   inkscape:version="0.92.1 r15371"
   sodipodi:docname="randomize.svg">
  <defs
     id="defs4606">
    <pattern
       y="0"
       x="0"
       height="6"
       width="6"
       patternUnits="userSpaceOnUse"
       id="EMFhbasepattern" />
  </defs>
  <sodipodi:namedview
     id="base"
     pagecolor="#ffffff"
     bordercolor="#666666"
     borderopacity="1.0"
     inkscape:pageopacity="0.0"
     inkscape:pageshadow="2"
     inkscape:zoom="4"
     inkscape:cx="38.64932"
     inkscape:cy="85.268272"
     inkscape:document-units="mm"
     inkscape:current-layer="layer1"
     showgrid="false"
     units="px"
     inkscape:window-width="1563"
     inkscape:window-height="991"
     inkscape:window-x="-8"
     inkscape:window-y="0"
     inkscape:window-maximized="0" />
  <metadata
     id="metadata4609">
    <rdf:RDF>
      <cc:Work
         rdf:about="">
        <dc:format>image/svg+xml</dc:format>
        <dc:type
           rdf:resource="http://purl.org/dc/dcmitype/StillImage" />
        <dc:title></dc:title>
      </cc:Work>
    </rdf:RDF>
  </metadata>
  <g
     inkscape:label="Layer 1"
     inkscape:groupmode="layer"
     id="layer1"
     transform="translate(0,-244.08332)">
    <g
       transform="translate(-1.0022603,3.4745027)"
       id="g5194">
      <g
         id="g5178">
        <g
           id="g4513"
           transform="translate(-26.271492,31.07174)" />
      </g>
    </g>
    <path
       style="color:#000000;font-style:normal;font-variant:normal;font-weight:normal;font-stretch:normal;font-size:medium;line-height:normal;font-family:sans-serif;font-variant-ligatures:normal;font-variant-position:normal;font-variant-caps:normal;font-variant-numeric:normal;font-variant-alternates:normal;font-feature-settings:normal;text-indent:0;text-align:start;text-decoration:none;text-decoration-line:none;text-decoration-style:solid;text-decoration-color:#000000;letter-spacing:normal;word-spacing:normal;text-transform:none;writing-mode:lr-tb;direction:ltr;text-orientation:mixed;dominant-baseline:auto;baseline-shift:baseline;text-anchor:start;white-space:normal;shape-padding:0;clip-rule:nonzero;display:inline;overflow:visible;visibility:visible;opacity:1;isolation:auto;mix-blend-mode:normal;color-interpolation:sRGB;color-interpolation-filters:linearRGB;solid-color:#000000;solid-opacity:1;vector-effect:none;fill:#000000;fill-opacity:1;fill-rule:nonzero;stroke:none;stroke-width:4.17578459;stroke-linecap:round;stroke-linejoin:round;stroke-miterlimit:4;stroke-dasharray:none;stroke-dashoffset:0;stroke-opacity:1;color-rendering:auto;image-rendering:auto;shape-rendering:auto;text-rendering:auto;enable-background:accumulate"
       d="M 81.458984 88.724609 A 2.0881011 2.0881011 0 0 0 80.005859 92.304688 L 81.691406 93.990234 L 79.201172 93.974609 C 75.397108 93.948153 72.496406 95.540875 70.585938 97.730469 C 69.558374 98.908163 68.766306 100.21877 68.064453 101.55469 C 67.259484 100.27824 66.30513 99.043408 65.107422 97.945312 C 62.707456 95.744947 59.297071 94.252712 54.722656 94.203125 A 2.0881011 2.0881011 0 0 0 54.515625 94.203125 A 2.0881011 2.0881011 0 0 0 54.677734 98.373047 C 58.421923 98.413488 60.588906 99.464685 62.289062 101.02344 C 63.721381 102.33663 64.801135 104.13124 65.8125 106.11719 C 64.801136 108.10314 63.721384 109.89771 62.289062 111.21094 C 60.588903 112.76973 58.421916 113.82077 54.677734 113.86133 A 2.0881011 2.0881011 0 1 0 54.722656 118.03125 C 59.297079 117.98174 62.70746 116.48943 65.107422 114.28906 C 66.305128 113.19095 67.259484 111.95614 68.064453 110.67969 C 68.766308 112.01562 69.55838 113.32619 70.585938 114.50391 C 72.496398 116.6935 75.397111 118.28584 79.201172 118.25977 L 81.734375 118.24414 L 80.005859 119.97266 A 2.0881011 2.0881011 0 1 0 82.957031 122.92578 L 88.279297 117.60352 A 2.0881011 2.0881011 0 0 0 88.287109 114.6582 L 82.964844 109.29102 A 2.0881011 2.0881011 0 0 0 81.466797 108.64844 A 2.0881011 2.0881011 0 0 0 79.998047 112.22852 L 81.820312 114.06445 L 79.169922 114.08203 C 76.413781 114.10093 75.048746 113.25976 73.738281 111.75781 C 72.551142 110.39725 71.561244 108.36152 70.478516 106.11719 C 71.561243 103.87286 72.551152 101.83713 73.738281 100.47656 C 75.048734 98.974654 76.413788 98.133371 79.169922 98.152344 L 81.833984 98.169922 L 80.005859 99.998047 A 2.0881011 2.0881011 0 1 0 82.957031 102.95117 L 88.279297 97.628906 A 2.0881011 2.0881011 0 0 0 88.279297 94.675781 L 82.957031 89.353516 A 2.0881011 2.0881011 0 0 0 81.458984 88.724609 z "
       transform="matrix(0.26458333,0,0,0.26458333,0,244.08332)"
       id="path4489" />
  </g>
</svg>
