<?xml version="1.0" encoding="UTF-8"?>
<svg width="200" height="200" version="1.1" viewBox="0 0 52.916665 52.916668" xmlns="http://www.w3.org/2000/svg">
 <g transform="translate(0 -244.08)">
  <g shape-rendering="auto">
   <path d="m26.033 252.3a2.1169 2.1169 0 0 0 -1.3164 3.6953l4.6484 4.2598-4.6484 4.2598a2.1171 2.1171 0 1 0 2.8613 3.1211l6.3496-5.8203a2.1169 2.1169 0 0 0 0 -3.1211l-6.3496-5.8203a2.1169 2.1169 0 0 0 -1.5449 -0.57422z" color="#000000" color-rendering="auto" dominant-baseline="auto" image-rendering="auto" solid-color="#000000" style="font-feature-settings:normal;font-variant-alternates:normal;font-variant-caps:normal;font-variant-ligatures:normal;font-variant-numeric:normal;font-variant-position:normal;isolation:auto;mix-blend-mode:normal;shape-padding:0;text-decoration-color:#000000;text-decoration-line:none;text-decoration-style:solid;text-indent:0;text-orientation:mixed;text-transform:none;white-space:normal"/>
   <path d="m27.93 257.79c-7.5734 0-13.758 6.1844-13.758 13.758 0 7.5734 6.1844 13.76 13.758 13.76 7.5734 0 13.758-6.1863 13.758-13.76a2.1169 2.1169 0 1 0 -4.2324 0c0 5.2856-4.2398 9.5254-9.5254 9.5254-5.2856 0-9.5254-4.2398-9.5254-9.5254 0-5.2856 4.2398-9.5234 9.5254-9.5234a2.1172 2.1172 0 1 0 0 -4.2344z" color="#000000" color-rendering="auto" dominant-baseline="auto" image-rendering="auto" solid-color="#000000" style="font-feature-settings:normal;font-variant-alternates:normal;font-variant-caps:normal;font-variant-ligatures:normal;font-variant-numeric:normal;font-variant-position:normal;isolation:auto;mix-blend-mode:normal;paint-order:markers stroke fill;shape-padding:0;text-decoration-color:#000000;text-decoration-line:none;text-decoration-style:solid;text-indent:0;text-orientation:mixed;text-transform:none;white-space:normal"/>
  </g>
 </g>
</svg>
