<?xml version="1.0" encoding="UTF-8" standalone="no"?>
<svg
   xmlns:dc="http://purl.org/dc/elements/1.1/"
   xmlns:cc="http://creativecommons.org/ns#"
   xmlns:rdf="http://www.w3.org/1999/02/22-rdf-syntax-ns#"
   xmlns:svg="http://www.w3.org/2000/svg"
   xmlns="http://www.w3.org/2000/svg"
   xmlns:sodipodi="http://sodipodi.sourceforge.net/DTD/sodipodi-0.dtd"
   xmlns:inkscape="http://www.inkscape.org/namespaces/inkscape"
   width="200"
   height="200"
   version="1.1"
   viewBox="0 0 52.916665 52.916668"
   id="svg6"
   sodipodi:docname="save.svg"
   inkscape:export-filename="C:\Users\Jon\Documents\GitHub\non-quantized-drums\assets\images\play.png"
   inkscape:export-xdpi="20.48"
   inkscape:export-ydpi="20.48"
   inkscape:version="0.92.1 r15371">
  <metadata
     id="metadata12">
    <rdf:RDF>
      <cc:Work
         rdf:about="">
        <dc:format>image/svg+xml</dc:format>
        <dc:type
           rdf:resource="http://purl.org/dc/dcmitype/StillImage" />
        <dc:title></dc:title>
      </cc:Work>
    </rdf:RDF>
  </metadata>
  <defs
     id="defs10" />
  <sodipodi:namedview
     pagecolor="#ffffff"
     bordercolor="#666666"
     borderopacity="1"
     objecttolerance="10"
     gridtolerance="10"
     guidetolerance="10"
     inkscape:pageopacity="0"
     inkscape:pageshadow="2"
     inkscape:window-width="1920"
     inkscape:window-height="1001"
     id="namedview8"
     showgrid="false"
     inkscape:zoom="4.72"
     inkscape:cx="100.46117"
     inkscape:cy="85.521813"
     inkscape:window-x="-9"
     inkscape:window-y="-9"
     inkscape:window-maximized="1"
     inkscape:current-layer="svg6" />
  <path
     style="color:#000000;font-style:normal;font-variant:normal;font-weight:normal;font-stretch:normal;font-size:medium;line-height:normal;font-family:sans-serif;font-variant-ligatures:normal;font-variant-position:normal;font-variant-caps:normal;font-variant-numeric:normal;font-variant-alternates:normal;font-feature-settings:normal;text-indent:0;text-align:start;text-decoration:none;text-decoration-line:none;text-decoration-style:solid;text-decoration-color:#000000;letter-spacing:normal;word-spacing:normal;text-transform:none;writing-mode:lr-tb;direction:ltr;text-orientation:mixed;dominant-baseline:auto;baseline-shift:baseline;text-anchor:start;white-space:normal;shape-padding:0;clip-rule:nonzero;display:inline;overflow:visible;visibility:visible;opacity:1;isolation:auto;mix-blend-mode:normal;color-interpolation:sRGB;color-interpolation-filters:linearRGB;solid-color:#000000;solid-opacity:1;vector-effect:none;fill:#000000;fill-opacity:1;fill-rule:nonzero;stroke:none;stroke-width:4.46574306;stroke-linecap:round;stroke-linejoin:round;stroke-miterlimit:4;stroke-dasharray:none;stroke-dashoffset:0;stroke-opacity:1;paint-order:markers stroke fill;color-rendering:auto;image-rendering:auto;shape-rendering:auto;text-rendering:auto;enable-background:accumulate"
     d="M 77.648438 94.65625 A 2.233095 2.233095 0 0 0 75.416016 96.888672 L 75.416016 119.70312 A 2.233095 2.233095 0 0 0 76.050781 121.26367 L 82.183594 127.55273 A 2.233095 2.233095 0 0 0 83.783203 128.22656 L 104.55273 128.22656 A 2.233095 2.233095 0 0 0 106.78516 125.99219 L 106.78516 96.888672 A 2.233095 2.233095 0 0 0 104.55273 94.65625 L 77.648438 94.65625 z M 79.882812 99.123047 L 81.597656 99.123047 L 81.65625 109.07031 A 2.233095 2.233095 0 0 0 83.884766 111.28906 L 98.310547 111.30469 A 2.233095 2.233095 0 0 0 100.54297 109.05273 L 100.46289 99.123047 L 102.32031 99.123047 L 102.32031 123.75977 L 98.392578 123.75977 L 98.341797 118.00977 A 2.233095 2.233095 0 0 0 96.099609 115.79688 L 86.636719 115.83203 A 2.233095 2.233095 0 0 0 84.414062 118.06445 L 84.414062 123.44141 L 79.882812 118.79492 L 79.882812 99.123047 z M 86.064453 99.123047 L 95.998047 99.123047 L 96.060547 106.83594 L 86.109375 106.82617 L 86.064453 99.123047 z M 93.896484 120.27148 L 93.927734 123.75977 L 88.880859 123.75977 L 88.880859 120.28906 L 93.896484 120.27148 z "
     transform="scale(0.26458333)"
     id="rect4572-3" />
</svg>
