<?xml version="1.0" encoding="UTF-8" standalone="no"?>
<svg
   xmlns:dc="http://purl.org/dc/elements/1.1/"
   xmlns:cc="http://creativecommons.org/ns#"
   xmlns:rdf="http://www.w3.org/1999/02/22-rdf-syntax-ns#"
   xmlns:svg="http://www.w3.org/2000/svg"
   xmlns="http://www.w3.org/2000/svg"
   xmlns:sodipodi="http://sodipodi.sourceforge.net/DTD/sodipodi-0.dtd"
   xmlns:inkscape="http://www.inkscape.org/namespaces/inkscape"
   width="200"
   height="200"
   version="1.1"
   viewBox="0 0 52.916665 52.916668"
   id="svg6"
   sodipodi:docname="save.svg"
   inkscape:export-filename="C:\Users\Jon\Documents\GitHub\non-quantized-drums\assets\images\play.png"
   inkscape:export-xdpi="20.48"
   inkscape:export-ydpi="20.48"
   inkscape:version="0.92.1 r15371">
  <metadata
     id="metadata12">
    <rdf:RDF>
      <cc:Work
         rdf:about="">
        <dc:format>image/svg+xml</dc:format>
        <dc:type
           rdf:resource="http://purl.org/dc/dcmitype/StillImage" />
        <dc:title></dc:title>
      </cc:Work>
    </rdf:RDF>
  </metadata>
  <defs
     id="defs10" />
  <sodipodi:namedview
     pagecolor="#ffffff"
     bordercolor="#666666"
     borderopacity="1"
     objecttolerance="10"
     gridtolerance="10"
     guidetolerance="10"
     inkscape:pageopacity="0"
     inkscape:pageshadow="2"
     inkscape:window-width="1920"
     inkscape:window-height="1001"
     id="namedview8"
     showgrid="false"
     inkscape:zoom="4"
     inkscape:cx="114.695"
     inkscape:cy="96.510282"
     inkscape:window-x="-9"
     inkscape:window-y="-9"
     inkscape:window-maximized="1"
     inkscape:current-layer="svg6" />
  <path
     style="color:#000000;font-style:normal;font-variant:normal;font-weight:normal;font-stretch:normal;font-size:medium;line-height:normal;font-family:sans-serif;font-variant-ligatures:normal;font-variant-position:normal;font-variant-caps:normal;font-variant-numeric:normal;font-variant-alternates:normal;font-feature-settings:normal;text-indent:0;text-align:start;text-decoration:none;text-decoration-line:none;text-decoration-style:solid;text-decoration-color:#000000;letter-spacing:normal;word-spacing:normal;text-transform:none;writing-mode:lr-tb;direction:ltr;text-orientation:mixed;dominant-baseline:auto;baseline-shift:baseline;text-anchor:start;white-space:normal;shape-padding:0;clip-rule:nonzero;display:inline;overflow:visible;visibility:visible;opacity:1;isolation:auto;mix-blend-mode:normal;color-interpolation:sRGB;color-interpolation-filters:linearRGB;solid-color:#000000;solid-opacity:1;vector-effect:none;fill:#000000;fill-opacity:1;fill-rule:nonzero;stroke:none;stroke-width:3.99999976;stroke-linecap:round;stroke-linejoin:round;stroke-miterlimit:4;stroke-dasharray:none;stroke-dashoffset:0;stroke-opacity:1;paint-order:markers stroke fill;color-rendering:auto;image-rendering:auto;shape-rendering:auto;text-rendering:auto;enable-background:accumulate"
     d="M 113.3125 94.916016 A 2.0001999 2.0001999 0 0 0 111.31055 96.916016 L 111.31055 119.7793 A 2.0001999 2.0001999 0 0 0 111.88086 121.17383 L 118.02148 127.47852 A 2.0001999 2.0001999 0 0 0 119.45312 128.07617 L 140.27148 128.07617 A 2.0001999 2.0001999 0 0 0 142.26367 126.07617 L 142.26367 96.916016 A 2.0001999 2.0001999 0 0 0 140.27148 94.916016 L 113.3125 94.916016 z M 115.3125 98.917969 L 117.50195 98.917969 L 117.56445 109.11914 A 2.0001999 2.0001999 0 0 0 119.55664 111.11328 L 134.01172 111.12695 A 2.0001999 2.0001999 0 0 0 136.01172 109.10352 L 135.93164 98.917969 L 138.26953 98.917969 L 138.26953 124.07422 L 133.86133 124.07422 L 133.80469 118.08008 A 2.0001999 2.0001999 0 0 0 131.79688 116.10156 L 122.31836 116.13281 A 2.0001999 2.0001999 0 0 0 120.32422 118.13281 L 120.32422 124.07422 L 120.29492 124.07422 L 115.3125 118.9668 L 115.3125 98.917969 z M 121.50195 98.917969 L 131.93164 98.917969 L 132.00391 107.12695 L 121.55078 107.11133 L 121.50195 98.917969 z M 129.82617 120.10352 L 129.86133 124.07422 L 124.32617 124.07422 L 124.32617 120.125 L 129.82617 120.10352 z "
     transform="scale(0.26458333)"
     id="rect4572-3-1" />
</svg>
