<?xml version="1.0" encoding="UTF-8" standalone="no"?>
<svg
   xmlns:dc="http://purl.org/dc/elements/1.1/"
   xmlns:cc="http://creativecommons.org/ns#"
   xmlns:rdf="http://www.w3.org/1999/02/22-rdf-syntax-ns#"
   xmlns:svg="http://www.w3.org/2000/svg"
   xmlns="http://www.w3.org/2000/svg"
   xmlns:sodipodi="http://sodipodi.sourceforge.net/DTD/sodipodi-0.dtd"
   xmlns:inkscape="http://www.inkscape.org/namespaces/inkscape"
   width="200"
   height="200"
   version="1.1"
   viewBox="0 0 52.916665 52.916668"
   id="svg12"
   sodipodi:docname="volume_full.svg"
   inkscape:version="0.92.1 r15371">
  <metadata
     id="metadata18">
    <rdf:RDF>
      <cc:Work
         rdf:about="">
        <dc:format>image/svg+xml</dc:format>
        <dc:type
           rdf:resource="http://purl.org/dc/dcmitype/StillImage" />
        <dc:title></dc:title>
      </cc:Work>
    </rdf:RDF>
  </metadata>
  <defs
     id="defs16" />
  <sodipodi:namedview
     pagecolor="#ffffff"
     bordercolor="#666666"
     borderopacity="1"
     objecttolerance="10"
     gridtolerance="10"
     guidetolerance="10"
     inkscape:pageopacity="0"
     inkscape:pageshadow="2"
     inkscape:window-width="1920"
     inkscape:window-height="1001"
     id="namedview14"
     showgrid="false"
     inkscape:zoom="2.36"
     inkscape:cx="90.246639"
     inkscape:cy="115.21697"
     inkscape:window-x="-9"
     inkscape:window-y="-9"
     inkscape:window-maximized="1"
     inkscape:current-layer="g8" />
  <g
     transform="translate(0 -244.08)"
     id="g10">
    <g
       id="g8"
       shape-rendering="auto">
      <path
         d="m25.742 251.79a2.1148 2.1148 0 0 0 -1.4355 0.61914l-7.8301 7.8477h-4.4043a2.1148 2.1148 0 0 0 -2.1152 2.1133v10.584a2.1148 2.1148 0 0 0 2.1152 2.1152h4.4043l7.8301 7.8457a2.1148 2.1148 0 0 0 3.6113 -1.4941v-27.518a2.1148 2.1148 0 0 0 -2.1758 -2.1133zm-2.0527 7.2266v17.291l-4.8379-4.8477a2.1148 2.1148 0 0 0 -1.498 -0.62109h-3.166v-6.3535h3.166a2.1148 2.1148 0 0 0 1.498 -0.62109z"
         dominant-baseline="auto"
         style="font-feature-settings:normal;font-variant-alternates:normal;font-variant-caps:normal;font-variant-ligatures:normal;font-variant-numeric:normal;font-variant-position:normal;isolation:auto;mix-blend-mode:normal;shape-padding:0;text-decoration-color:#000000;text-decoration-line:none;text-decoration-style:solid;text-indent:0;text-orientation:mixed;text-transform:none;white-space:normal"
         id="path2"
         image-rendering="auto"
         color-rendering="auto"
         solid-color="#000000"
         color="#000000" />
      <path
         d="m37.391 255.63a2.1148 2.1148 0 0 0 -1.4121 3.6543c2.1935 2.1197 3.5547 5.0794 3.5547 8.3848 0 3.4584-1.4894 6.5383-3.8633 8.6719a2.1148 2.1148 0 1 0 2.8262 3.1445c3.2314-2.9043 5.2676-7.1364 5.2676-11.816 0-4.4731-1.8603-8.5408-4.8457-11.426a2.1148 2.1148 0 0 0 -1.5273 -0.61328z"
         dominant-baseline="auto"
         style="font-feature-settings:normal;font-variant-alternates:normal;font-variant-caps:normal;font-variant-ligatures:normal;font-variant-numeric:normal;font-variant-position:normal;isolation:auto;mix-blend-mode:normal;paint-order:markers stroke fill;shape-padding:0;text-decoration-color:#000000;text-decoration-line:none;text-decoration-style:solid;text-indent:0;text-orientation:mixed;text-transform:none;white-space:normal"
         id="path4"
         image-rendering="auto"
         color-rendering="auto"
         solid-color="#000000"
         color="#000000" />
      <path
         d="m31.572 261.75a2.1148 2.1148 0 0 0 -1.4395 3.6445c0.58918 0.57864 0.95117 1.3689 0.95117 2.2715 0 0.92688-0.38285 1.735-1 2.3164a2.1148 2.1148 0 1 0 2.9004 3.0781c1.4319-1.349 2.3281-3.281 2.3281-5.3945 0-2.0582-0.85011-3.9468-2.2168-5.2891a2.1148 2.1148 0 0 0 -1.5234 -0.62696z"
         dominant-baseline="auto"
         style="font-feature-settings:normal;font-variant-alternates:normal;font-variant-caps:normal;font-variant-ligatures:normal;font-variant-numeric:normal;font-variant-position:normal;isolation:auto;mix-blend-mode:normal;paint-order:markers stroke fill;shape-padding:0;text-decoration-color:#000000;text-decoration-line:none;text-decoration-style:solid;text-indent:0;text-orientation:mixed;text-transform:none;white-space:normal"
         id="path6"
         image-rendering="auto"
         color-rendering="auto"
         solid-color="#000000"
         color="#000000" />
    </g>
  </g>
</svg>
