<?xml version="1.0" encoding="UTF-8"?>
<svg width="200" height="200" version="1.1" viewBox="0 0 52.916665 52.916668" xmlns="http://www.w3.org/2000/svg">
 <g transform="translate(0 -244.08)">
  <g shape-rendering="auto">
   <path d="m25.742 251.79a2.1148 2.1148 0 0 0 -1.4355 0.61914l-7.8301 7.8477h-4.4043a2.1148 2.1148 0 0 0 -2.1152 2.1133v10.584a2.1148 2.1148 0 0 0 2.1152 2.1152h4.4043l7.8301 7.8457a2.1148 2.1148 0 0 0 3.6113 -1.4941v-27.518a2.1148 2.1148 0 0 0 -2.1758 -2.1133zm-2.0527 7.2266v17.291l-4.8379-4.8477a2.1148 2.1148 0 0 0 -1.498 -0.62109h-3.166v-6.3535h3.166a2.1148 2.1148 0 0 0 1.498 -0.62109z" color="#000000" color-rendering="auto" dominant-baseline="auto" image-rendering="auto" solid-color="#000000" style="font-feature-settings:normal;font-variant-alternates:normal;font-variant-caps:normal;font-variant-ligatures:normal;font-variant-numeric:normal;font-variant-position:normal;isolation:auto;mix-blend-mode:normal;shape-padding:0;text-decoration-color:#000000;text-decoration-line:none;text-decoration-style:solid;text-indent:0;text-orientation:mixed;text-transform:none;white-space:normal"/>
   <path d="m37.391 255.63a2.1148 2.1148 0 0 0 -1.4121 3.6543c2.1935 2.1197 3.5547 5.0794 3.5547 8.3848 0 3.4584-1.4894 6.5383-3.8633 8.6719a2.1148 2.1148 0 1 0 2.8262 3.1445c3.2314-2.9043 5.2676-7.1364 5.2676-11.816 0-4.4731-1.8603-8.5408-4.8457-11.426a2.1148 2.1148 0 0 0 -1.5273 -0.61328z" color="#000000" color-rendering="auto" dominant-baseline="auto" image-rendering="auto" solid-color="#000000" style="font-feature-settings:normal;font-variant-alternates:normal;font-variant-caps:normal;font-variant-ligatures:normal;font-variant-numeric:normal;font-variant-position:normal;isolation:auto;mix-blend-mode:normal;paint-order:markers stroke fill;shape-padding:0;text-decoration-color:#000000;text-decoration-line:none;text-decoration-style:solid;text-indent:0;text-orientation:mixed;text-transform:none;white-space:normal"/>
   <path d="m31.572 261.75a2.1148 2.1148 0 0 0 -1.4395 3.6445c0.58918 0.57864 0.95117 1.3689 0.95117 2.2715 0 0.92688-0.38285 1.735-1 2.3164a2.1148 2.1148 0 1 0 2.9004 3.0781c1.4319-1.349 2.3281-3.281 2.3281-5.3945 0-2.0582-0.85011-3.9468-2.2168-5.2891a2.1148 2.1148 0 0 0 -1.5234 -0.62696z" color="#000000" color-rendering="auto" dominant-baseline="auto" image-rendering="auto" solid-color="#000000" style="font-feature-settings:normal;font-variant-alternates:normal;font-variant-caps:normal;font-variant-ligatures:normal;font-variant-numeric:normal;font-variant-position:normal;isolation:auto;mix-blend-mode:normal;paint-order:markers stroke fill;shape-padding:0;text-decoration-color:#000000;text-decoration-line:none;text-decoration-style:solid;text-indent:0;text-orientation:mixed;text-transform:none;white-space:normal"/>
  </g>
 </g>
</svg>
