<?xml version="1.0" encoding="UTF-8"?>
<svg width="200" height="200" version="1.1" viewBox="0 0 52.916665 52.916668" xmlns="http://www.w3.org/2000/svg">
 <g transform="translate(0 -244.08)" shape-rendering="auto">
  <path d="m24.867 253.72a2.1148 2.1148 0 0 0 -1.4336 0.61914l-7.832 7.8477h-4.4043a2.1148 2.1148 0 0 0 -2.1133 2.1133v10.584a2.1148 2.1148 0 0 0 2.1133 2.1152h4.4043l7.832 7.8457a2.1148 2.1148 0 0 0 3.6113 -1.4941v-27.518a2.1148 2.1148 0 0 0 -2.1777 -2.1133zm-2.0527 7.2266v17.291l-4.8379-4.8477a2.1148 2.1148 0 0 0 -1.498 -0.62109h-3.166v-6.3535h3.166a2.1148 2.1148 0 0 0 1.498 -0.62109z" color="#000000" color-rendering="auto" dominant-baseline="auto" image-rendering="auto" solid-color="#000000" style="font-feature-settings:normal;font-variant-alternates:normal;font-variant-caps:normal;font-variant-ligatures:normal;font-variant-numeric:normal;font-variant-position:normal;isolation:auto;mix-blend-mode:normal;shape-padding:0;text-decoration-color:#000000;text-decoration-line:none;text-decoration-style:solid;text-indent:0;text-orientation:mixed;text-transform:none;white-space:normal"/>
  <path d="m30.697 263.68a2.1148 2.1148 0 0 0 -1.4395 3.6445c0.58918 0.57863 0.95117 1.3689 0.95117 2.2715 0 0.92688-0.38285 1.735-1 2.3164a2.1148 2.1148 0 1 0 2.9004 3.0781c1.4319-1.349 2.3281-3.281 2.3281-5.3945 0-2.0582-0.85011-3.9469-2.2168-5.2891a2.1148 2.1148 0 0 0 -1.5234 -0.62695z" color="#000000" color-rendering="auto" dominant-baseline="auto" image-rendering="auto" solid-color="#000000" style="font-feature-settings:normal;font-variant-alternates:normal;font-variant-caps:normal;font-variant-ligatures:normal;font-variant-numeric:normal;font-variant-position:normal;isolation:auto;mix-blend-mode:normal;paint-order:markers stroke fill;shape-padding:0;text-decoration-color:#000000;text-decoration-line:none;text-decoration-style:solid;text-indent:0;text-orientation:mixed;text-transform:none;white-space:normal"/>
 </g>
</svg>
